<svg width="1440" height="320" viewBox="0 0 1440 320" fill="none" xmlns="http://www.w3.org/2000/svg">
    <g clip-path="url(#clip0_225_442)">
    <rect width="1440" height="320" fill="#F7F7F7"/>
    <path d="M0 192H48C96 192 192 192 288 165.3C384 139 480 85 576 80C672 75 768 117 864 138.7C960 160 1056 160 1152 160C1248 160 1344 160 1392 160H1440V0H1392C1344 0 1248 0 1152 0C1056 0 960 0 864 0C768 0 672 0 576 0C480 0 384 0 288 0C192 0 96 0 48 0H0V192Z" fill="#845EC2"/>
    </g>
    <defs>
    <clipPath id="clip0_225_442">
    <rect width="1440" height="320" fill="white"/>
    </clipPath>
    </defs>
    </svg>
    