<svg width="34" height="34" viewBox="0 0 34 34" fill="none" xmlns="http://www.w3.org/2000/svg">
    <path d="M28.9852 13.6425C28.7863 11.5727 28.0548 9.58956 26.8619 7.88636C25.669 6.18315 24.0553 4.81787 22.1781 3.92348C20.3009 3.02908 18.224 2.63605 16.1498 2.78265C14.0756 2.92925 12.0746 3.61049 10.3419 4.76003C8.85323 5.75544 7.60352 7.0682 6.68253 8.604C5.76155 10.1398 5.19213 11.8605 5.0152 13.6425C4.84163 15.4129 5.06432 17.1997 5.66711 18.8733C6.26989 20.5468 7.23766 22.0653 8.5002 23.3184L16.0085 30.8409C16.1402 30.9736 16.2969 31.079 16.4695 31.151C16.6422 31.2229 16.8273 31.2599 17.0144 31.2599C17.2014 31.2599 17.3865 31.2229 17.5592 31.151C17.7318 31.079 17.8885 30.9736 18.0202 30.8409L25.5002 23.3184C26.7627 22.0653 27.7305 20.5468 28.3333 18.8733C28.9361 17.1997 29.1588 15.4129 28.9852 13.6425V13.6425ZM23.5169 21.3209L17.0002 27.8375L10.4835 21.3209C9.52316 20.3604 8.7875 19.1992 8.32944 17.9205C7.87139 16.6419 7.70231 15.2776 7.83436 13.9259C7.96727 12.5533 8.40353 11.2273 9.11159 10.044C9.81965 8.86061 10.7818 7.84937 11.9285 7.08336C13.4315 6.08495 15.1958 5.55237 17.0002 5.55237C18.8046 5.55237 20.5689 6.08495 22.0719 7.08336C23.2151 7.8464 24.1751 8.85318 24.883 10.0314C25.5909 11.2095 26.0291 12.5299 26.166 13.8975C26.3024 15.2539 26.1354 16.6236 25.6773 17.9075C25.2191 19.1914 24.4811 20.3573 23.5169 21.3209V21.3209ZM17.0002 8.50003C15.7393 8.50003 14.5068 8.87392 13.4584 9.57441C12.4101 10.2749 11.593 11.2705 11.1105 12.4354C10.628 13.6003 10.5017 14.8821 10.7477 16.1187C10.9937 17.3554 11.6008 18.4913 12.4924 19.3828C13.384 20.2744 14.5199 20.8816 15.7565 21.1275C16.9931 21.3735 18.2749 21.2473 19.4398 20.7648C20.6047 20.2823 21.6003 19.4652 22.3008 18.4168C23.0013 17.3684 23.3752 16.1359 23.3752 14.875C23.3715 13.1854 22.6986 11.5661 21.5039 10.3714C20.3091 9.17662 18.6898 8.50377 17.0002 8.50003V8.50003ZM17.0002 18.4167C16.2997 18.4167 15.615 18.209 15.0326 17.8198C14.4501 17.4307 13.9962 16.8775 13.7281 16.2304C13.4601 15.5832 13.3899 14.8711 13.5266 14.1841C13.6632 13.4971 14.0006 12.866 14.4959 12.3707C14.9912 11.8754 15.6222 11.5381 16.3093 11.4014C16.9963 11.2648 17.7084 11.3349 18.3555 11.603C19.0027 11.871 19.5558 12.325 19.945 12.9074C20.3341 13.4898 20.5419 14.1746 20.5419 14.875C20.5419 15.8143 20.1687 16.7152 19.5045 17.3794C18.8403 18.0436 17.9395 18.4167 17.0002 18.4167V18.4167Z" fill="black"/>
    </svg>
    