<svg width="40" height="40" viewBox="0 0 40 40" fill="none" xmlns="http://www.w3.org/2000/svg">
    <path d="M1.66675 20.8334V29.1667C1.66675 29.6088 1.84234 30.0327 2.1549 30.3453C2.46746 30.6578 2.89139 30.8334 3.33341 30.8334H5.00008C5.00008 32.1595 5.52687 33.4313 6.46455 34.3689C7.40223 35.3066 8.674 35.8334 10.0001 35.8334C11.3262 35.8334 12.5979 35.3066 13.5356 34.3689C14.4733 33.4313 15.0001 32.1595 15.0001 30.8334H25.0001C25.0001 32.1595 25.5269 33.4313 26.4645 34.3689C27.4022 35.3066 28.674 35.8334 30.0001 35.8334C31.3262 35.8334 32.5979 35.3066 33.5356 34.3689C34.4733 33.4313 35.0001 32.1595 35.0001 30.8334H36.6667C37.1088 30.8334 37.5327 30.6578 37.8453 30.3453C38.1578 30.0327 38.3334 29.6088 38.3334 29.1667V9.16675C38.3334 7.84067 37.8066 6.5689 36.8689 5.63121C35.9313 4.69353 34.6595 4.16675 33.3334 4.16675H18.3334C17.0073 4.16675 15.7356 4.69353 14.7979 5.63121C13.8602 6.5689 13.3334 7.84067 13.3334 9.16675V12.5001H10.0001C9.22386 12.5001 8.45829 12.6808 7.76401 13.0279C7.06974 13.3751 6.46582 13.8791 6.00008 14.5001L2.00008 19.8334C1.95133 19.9059 1.91212 19.9843 1.88341 20.0667L1.78341 20.2501C1.70986 20.436 1.67034 20.6335 1.66675 20.8334V20.8334ZM28.3334 30.8334C28.3334 30.5038 28.4312 30.1815 28.6143 29.9075C28.7974 29.6334 29.0577 29.4198 29.3623 29.2936C29.6668 29.1675 30.0019 29.1345 30.3252 29.1988C30.6485 29.2631 30.9455 29.4218 31.1786 29.6549C31.4117 29.888 31.5704 30.185 31.6347 30.5083C31.699 30.8316 31.666 31.1667 31.5399 31.4712C31.4137 31.7758 31.2001 32.0361 30.926 32.2192C30.6519 32.4023 30.3297 32.5001 30.0001 32.5001C29.5581 32.5001 29.1341 32.3245 28.8216 32.0119C28.509 31.6994 28.3334 31.2754 28.3334 30.8334ZM16.6667 9.16675C16.6667 8.72472 16.8423 8.3008 17.1549 7.98824C17.4675 7.67568 17.8914 7.50008 18.3334 7.50008H33.3334C33.7754 7.50008 34.1994 7.67568 34.5119 7.98824C34.8245 8.3008 35.0001 8.72472 35.0001 9.16675V27.5001H33.7001C33.2314 26.9845 32.6602 26.5725 32.0231 26.2906C31.3859 26.0087 30.6968 25.8631 30.0001 25.8631C29.3033 25.8631 28.6143 26.0087 27.9771 26.2906C27.3399 26.5725 26.7687 26.9845 26.3001 27.5001H16.6667V9.16675ZM13.3334 19.1667H6.66675L8.66675 16.5001C8.82199 16.2931 9.0233 16.1251 9.25472 16.0094C9.48615 15.8937 9.74134 15.8334 10.0001 15.8334H13.3334V19.1667ZM8.33341 30.8334C8.33341 30.5038 8.43116 30.1815 8.6143 29.9075C8.79743 29.6334 9.05773 29.4198 9.36228 29.2936C9.66682 29.1675 10.0019 29.1345 10.3252 29.1988C10.6485 29.2631 10.9455 29.4218 11.1786 29.6549C11.4117 29.888 11.5704 30.185 11.6347 30.5083C11.699 30.8316 11.666 31.1667 11.5399 31.4712C11.4137 31.7758 11.2001 32.0361 10.926 32.2192C10.6519 32.4023 10.3297 32.5001 10.0001 32.5001C9.55805 32.5001 9.13413 32.3245 8.82157 32.0119C8.50901 31.6994 8.33341 31.2754 8.33341 30.8334ZM5.00008 22.5001H13.3334V27.1334C12.3498 26.2543 11.0586 25.7996 9.74124 25.8683C8.42383 25.937 7.18695 26.5235 6.30008 27.5001H5.00008V22.5001Z" fill="white"/>
    </svg>
    