<svg width="34" height="34" viewBox="0 0 34 34" fill="none" xmlns="http://www.w3.org/2000/svg">
    <path d="M26.9163 5.66663H7.08301C5.95584 5.66663 4.87483 6.11439 4.0778 6.91142C3.28077 7.70845 2.83301 8.78946 2.83301 9.91663V24.0833C2.83301 25.2105 3.28077 26.2915 4.0778 27.0885C4.87483 27.8855 5.95584 28.3333 7.08301 28.3333H26.9163C28.0435 28.3333 29.1245 27.8855 29.9215 27.0885C30.7186 26.2915 31.1663 25.2105 31.1663 24.0833V9.91663C31.1663 8.78946 30.7186 7.70845 29.9215 6.91142C29.1245 6.11439 28.0435 5.66663 26.9163 5.66663V5.66663ZM26.3355 8.49996L18.0055 16.83C17.8738 16.9627 17.7171 17.0681 17.5445 17.1401C17.3719 17.212 17.1867 17.249 16.9997 17.249C16.8127 17.249 16.6275 17.212 16.4549 17.1401C16.2822 17.0681 16.1255 16.9627 15.9938 16.83L7.66384 8.49996H26.3355ZM28.333 24.0833C28.333 24.459 28.1838 24.8194 27.9181 25.085C27.6524 25.3507 27.2921 25.5 26.9163 25.5H7.08301C6.70728 25.5 6.34695 25.3507 6.08127 25.085C5.8156 24.8194 5.66634 24.459 5.66634 24.0833V10.4975L13.9963 18.8275C14.7932 19.6233 15.8734 20.0704 16.9997 20.0704C18.1259 20.0704 19.2061 19.6233 20.003 18.8275L28.333 10.4975V24.0833Z" fill="black"/>
    </svg>
    