<svg width="34" height="34" viewBox="0 0 34 34" fill="none" xmlns="http://www.w3.org/2000/svg">
    <path d="M27.54 18.4166C27.2284 18.4166 26.9025 18.3175 26.5909 18.2466C25.9597 18.1076 25.3395 17.9229 24.735 17.6941C24.0778 17.4551 23.3554 17.4675 22.7068 17.729C22.0582 17.9905 21.5292 18.4827 21.2217 19.1108L20.91 19.7483C19.5302 18.9807 18.2622 18.0274 17.1417 16.915C16.0293 15.7944 15.0759 14.5265 14.3084 13.1466L14.9034 12.75C15.5315 12.4424 16.0236 11.9135 16.2852 11.2649C16.5467 10.6163 16.5591 9.89385 16.32 9.23664C16.0951 8.63091 15.9105 8.01094 15.7675 7.38081C15.6967 7.06914 15.64 6.74331 15.5975 6.41748C15.4255 5.4196 14.9028 4.51594 14.1237 3.86923C13.3445 3.22252 12.36 2.87526 11.3475 2.88998H7.09752C6.48698 2.88424 5.88238 3.01013 5.32486 3.25906C4.76734 3.50799 4.27001 3.87413 3.86671 4.33254C3.46342 4.79096 3.16363 5.33088 2.98775 5.91557C2.81188 6.50026 2.76405 7.11598 2.84752 7.72081C3.60223 13.6558 6.31273 19.1701 10.5509 23.3929C14.789 27.6156 20.3132 30.306 26.2509 31.0391H26.7892C27.8339 31.0407 28.8425 30.6574 29.6225 29.9625C30.0707 29.5616 30.4287 29.0702 30.6729 28.5208C30.9171 27.9713 31.042 27.3763 31.0392 26.775V22.525C31.0218 21.5409 30.6635 20.5934 30.0253 19.8442C29.3872 19.0949 28.5088 18.5904 27.54 18.4166ZM28.2484 26.9166C28.2481 27.1178 28.205 27.3166 28.122 27.4998C28.0389 27.683 27.9178 27.8464 27.7667 27.9791C27.6089 28.1166 27.4238 28.2191 27.2236 28.2802C27.0235 28.3412 26.8127 28.3593 26.605 28.3333C21.2995 27.653 16.3714 25.2258 12.598 21.4346C8.82472 17.6433 6.42094 12.7037 5.76585 7.39498C5.74331 7.18746 5.76307 6.97753 5.82394 6.77786C5.88481 6.5782 5.98554 6.39295 6.12002 6.23331C6.25278 6.0822 6.41619 5.96108 6.59939 5.87803C6.78259 5.79498 6.98138 5.7519 7.18252 5.75164H11.4325C11.762 5.74431 12.0837 5.85206 12.3422 6.05633C12.6008 6.2606 12.7801 6.54862 12.8492 6.87081C12.9059 7.25803 12.9767 7.64053 13.0617 8.01831C13.2253 8.7651 13.4431 9.49898 13.7134 10.2141L11.73 11.135C11.5604 11.2128 11.4079 11.3233 11.2812 11.4602C11.1544 11.5972 11.056 11.7578 10.9915 11.9328C10.927 12.1079 10.8977 12.294 10.9053 12.4804C10.9129 12.6668 10.9573 12.8499 11.0359 13.0191C13.0747 17.3864 16.5853 20.8969 20.9525 22.9358C21.2974 23.0775 21.6843 23.0775 22.0292 22.9358C22.2059 22.8726 22.3682 22.775 22.5068 22.6485C22.6455 22.522 22.7576 22.3693 22.8367 22.1991L23.715 20.2158C24.4474 20.4777 25.1949 20.6953 25.9534 20.8675C26.3311 20.9525 26.7136 21.0233 27.1009 21.08C27.423 21.1491 27.7111 21.3284 27.9153 21.5869C28.1196 21.8455 28.2274 22.1672 28.22 22.4966L28.2484 26.9166Z" fill="black"/>
    </svg>
    