<svg width="40" height="40" viewBox="0 0 40 40" fill="none" xmlns="http://www.w3.org/2000/svg">
    <path d="M20.5 20.3668C21.3893 19.5971 22.1025 18.645 22.5914 17.5752C23.0803 16.5054 23.3333 15.343 23.3333 14.1668C23.3333 11.9567 22.4553 9.83708 20.8925 8.27427C19.3297 6.71147 17.2101 5.8335 15 5.8335C12.7898 5.8335 10.6702 6.71147 9.1074 8.27427C7.5446 9.83708 6.66663 11.9567 6.66663 14.1668C6.66661 15.343 6.91963 16.5054 7.4085 17.5752C7.89737 18.645 8.61066 19.5971 9.49996 20.3668C7.16686 21.4233 5.1874 23.1294 3.79826 25.2811C2.40912 27.4328 1.66908 29.939 1.66663 32.5002C1.66663 32.9422 1.84222 33.3661 2.15478 33.6787C2.46734 33.9912 2.89127 34.1668 3.33329 34.1668C3.77532 34.1668 4.19924 33.9912 4.5118 33.6787C4.82436 33.3661 4.99996 32.9422 4.99996 32.5002C4.99996 29.848 6.05353 27.3045 7.92889 25.4291C9.80426 23.5537 12.3478 22.5002 15 22.5002C17.6521 22.5002 20.1957 23.5537 22.071 25.4291C23.9464 27.3045 25 29.848 25 32.5002C25 32.9422 25.1756 33.3661 25.4881 33.6787C25.8007 33.9912 26.2246 34.1668 26.6666 34.1668C27.1087 34.1668 27.5326 33.9912 27.8451 33.6787C28.1577 33.3661 28.3333 32.9422 28.3333 32.5002C28.3308 29.939 27.5908 27.4328 26.2017 25.2811C24.8125 23.1294 22.8331 21.4233 20.5 20.3668V20.3668ZM15 19.1668C14.0111 19.1668 13.0444 18.8736 12.2221 18.3242C11.3999 17.7748 10.759 16.9939 10.3806 16.0802C10.0021 15.1666 9.90311 14.1613 10.096 13.1914C10.289 12.2215 10.7652 11.3306 11.4644 10.6313C12.1637 9.93203 13.0546 9.45583 14.0245 9.2629C14.9944 9.06998 15.9997 9.16899 16.9134 9.54743C17.827 9.92587 18.6079 10.5667 19.1573 11.389C19.7067 12.2112 20 13.1779 20 14.1668C20 15.4929 19.4732 16.7647 18.5355 17.7024C17.5978 18.64 16.326 19.1668 15 19.1668ZM31.2333 19.7002C32.2999 18.499 32.9966 17.0153 33.2396 15.4274C33.4826 13.8395 33.2615 12.2153 32.6029 10.7502C31.9443 9.28504 30.8763 8.04149 29.5274 7.1692C28.1785 6.29691 26.6063 5.83307 25 5.8335C24.5579 5.8335 24.134 6.00909 23.8214 6.32165C23.5089 6.63421 23.3333 7.05814 23.3333 7.50016C23.3333 7.94219 23.5089 8.36611 23.8214 8.67867C24.134 8.99124 24.5579 9.16683 25 9.16683C26.326 9.16683 27.5978 9.69361 28.5355 10.6313C29.4732 11.569 30 12.8407 30 14.1668C29.9976 15.0422 29.7655 15.9017 29.3267 16.6592C28.888 17.4167 28.2581 18.0458 27.5 18.4835C27.2529 18.626 27.0465 18.8296 26.9006 19.0747C26.7547 19.3199 26.6741 19.5983 26.6666 19.8835C26.6597 20.1664 26.7248 20.4465 26.8561 20.6973C26.9873 20.948 27.1802 21.1613 27.4166 21.3168L28.0666 21.7502L28.2833 21.8668C30.2923 22.8197 31.9871 24.3268 33.1683 26.2107C34.3494 28.0946 34.9675 30.2767 34.95 32.5002C34.95 32.9422 35.1256 33.3661 35.4381 33.6787C35.7507 33.9912 36.1746 34.1668 36.6166 34.1668C37.0587 34.1668 37.4826 33.9912 37.7951 33.6787C38.1077 33.3661 38.2833 32.9422 38.2833 32.5002C38.2969 29.9425 37.6563 27.4239 36.4224 25.1836C35.1885 22.9433 33.4022 21.0557 31.2333 19.7002V19.7002Z" fill="white"/>
    </svg>
    