<svg id="Layer_1" data-name="Layer 1" xmlns="http://www.w3.org/2000/svg" viewBox="0 0 1506.79 789"><defs><style>.cls-1{fill:#fff;}</style></defs><path class="cls-1" d="M645.19,962.83a317.26,317.26,0,0,1,11.7-85.62l-78.46,88.35-7.78,8.76a36.72,36.72,0,0,1-50.88-4.26,36.06,36.06,0,0,1-3.55-4.8l-171-230.64-.05-.08-4-5.36a75.73,75.73,0,0,0-134.56,47.7v520h0c0,.19,0,.37,0,.57a57.08,57.08,0,0,0,114.16,0c0-.2,0-.38,0-.57h0V896.7a1.14,1.14,0,0,1,1.13-1.13,1.11,1.11,0,0,1,.69.24l.37.48,144.23,194.54L509,1147.27l.1.13,1.7,2.31a36.72,36.72,0,0,0,51.81,5.54l7.93-8.92,43.54-49L657,1049A317.08,317.08,0,0,1,645.19,962.83ZM338.91,729.18c1.4,1.72,2.73,3.51,4,5.36ZM514,965.26l3.54,4.8A36.88,36.88,0,0,1,514,965.26Z" transform="translate(-206.61 -565.5)"/><path class="cls-1" d="M338.91,729.18c1.4,1.72,2.73,3.51,4,5.36Z" transform="translate(-206.61 -565.5)"/><path class="cls-1" d="M517.5,970.06a36.88,36.88,0,0,1-3.54-4.8Z" transform="translate(-206.61 -565.5)"/><path class="cls-1" d="M517.5,970.06a36.88,36.88,0,0,1-3.54-4.8Z" transform="translate(-206.61 -565.5)"/><path class="cls-1" d="M960,688.71a273.42,273.42,0,0,0-100.5,19h0c-101.67,40.1-173.61,139.2-173.61,255.11a276.06,276.06,0,0,0,4,46.66C712,1138.66,824.51,1236.94,960,1236.94c151.39,0,274.12-122.72,274.12-274.11S1111.39,688.71,960,688.71ZM960,1142A179.26,179.26,0,0,1,796.55,889.34h0A179.18,179.18,0,1,1,960,1142Z" transform="translate(-206.61 -565.5)"/><path class="cls-1" d="M1274.81,957.17a317.26,317.26,0,0,1-11.7,85.62l78.46-88.35,7.78-8.76a36.72,36.72,0,0,1,50.88,4.26,36.06,36.06,0,0,1,3.55,4.8l171,230.64,0,.08,4,5.36a75.73,75.73,0,0,0,134.56-47.7v-520h0c0-.19,0-.37,0-.57a57.08,57.08,0,0,0-114.16,0c0,.2,0,.38,0,.57h0V1023.3a1.14,1.14,0,0,1-1.13,1.13,1.11,1.11,0,0,1-.69-.24l-.37-.48L1452.81,829.17,1411,772.73l-.1-.13-1.7-2.31a36.72,36.72,0,0,0-51.81-5.54l-7.93,8.92-43.54,49L1263,871A317.08,317.08,0,0,1,1274.81,957.17Zm306.28,233.65c-1.4-1.72-2.73-3.51-4-5.36ZM1406,954.74l-3.54-4.8A36.88,36.88,0,0,1,1406,954.74Z" transform="translate(-206.61 -565.5)"/><path class="cls-1" d="M342.88,734.54l-4-5.36C340.31,730.9,341.64,732.69,342.88,734.54Z" transform="translate(-206.61 -565.5)"/></svg>