<svg width="1440" height="320" viewBox="0 0 1440 320" fill="none" xmlns="http://www.w3.org/2000/svg">
    <g clip-path="url(#clip0_225_442)">
    <rect width="1440" height="320" fill="#F7F7F7"/>
    <path d="M0 192L48 186.7C96 181 192 171 288 176C384 181 480 203 576 192C672 181 768 139 864 144C960 149 1056 203 1152 213.3C1248 224 1344 192 1392 176L1440 160V320H1392C1344 320 1248 320 1152 320C1056 320 960 320 864 320C768 320 672 320 576 320C480 320 384 320 288 320C192 320 96 320 48 320H0V192Z" fill="#845EC2"/>
    </g>
    <defs>
    <clipPath id="clip0_225_442">
    <rect width="1440" height="320" fill="white"/>
    </clipPath>
    </defs>
    </svg>
    